<svg xmlns="http://www.w3.org/2000/svg" version="1.1" xmlns:xlink="http://www.w3.org/1999/xlink" xmlns:svgjs="http://svgjs.dev/svgjs" width="1500" height="935" viewBox="0 0 1500 935"><g transform="matrix(1,0,0,1,-0.9090909090909918,0.3785425101214628)"><svg viewBox="0 0 396 247" data-background-color="#ffffff" preserveAspectRatio="xMidYMid meet" height="935" width="1500" xmlns="http://www.w3.org/2000/svg" xmlns:xlink="http://www.w3.org/1999/xlink"><g id="tight-bounds" transform="matrix(1,0,0,1,0.2400000000000091,-0.09999999999999432)"><svg viewBox="0 0 395.52 247.2" height="247.2" width="395.52"><g><svg></svg></g><g><svg viewBox="0 0 395.52 247.2" height="247.2" width="395.52"><mask id="cf02fafb-64ae-4bb8-8ee4-493e1b6f7cb5"><rect width="640" height="400" fill="white"></rect><g transform="matrix(1,0,0,1,122.91252071005917,37.08)"><svg viewBox="0 0 149.69495857988164 173.04" height="173.04" width="149.69495857988164"><g><svg viewBox="0 0 149.69495857988164 173.04" height="173.04" width="149.69495857988164"><g><svg viewBox="0 0 149.69495857988164 173.04" height="173.04" width="149.69495857988164"><g><svg viewBox="0 0 149.69495857988164 173.04" height="173.04" width="149.69495857988164"><g id="SvgjsG1089"><svg viewBox="0 0 149.69495857988164 173.04" height="173.04" width="149.69495857988164" id="SvgjsSvg1088"><g><svg viewBox="0 0 149.69495857988164 173.04" height="173.04" width="149.69495857988164"><g transform="matrix(1,0,0,1,0,0)"><svg width="149.69495857988164" viewBox="0.34999999999999964 -39.25 37.55 43.25" height="173.04" data-palette-color="#b10dc9"><path d="M4.35 0L4.35-35.25 16.2-35.25Q24.65-35.25 29.28-30.68 33.9-26.1 33.9-17.65L33.9-17.65Q33.9-9.2 29.28-4.6 24.65 0 16.2 0L16.2 0 4.35 0ZM8.45-3.5L15.95-3.5Q29.65-3.5 29.65-17.65L29.65-17.65Q29.65-31.75 15.95-31.75L15.95-31.75 8.45-31.75 8.45-3.5Z" opacity="1" transform="matrix(1,0,0,1,0,0)" fill="black" class="wordmark-text-0" id="SvgjsPath1087" stroke-width="7" stroke="black" stroke-linejoin="round"></path></svg></g></svg></g></svg></g></svg></g><g></g></svg></g></svg></g></svg></g></mask><g transform="matrix(1,0,0,1,122.91252071005917,37.08)"><svg viewBox="0 0 149.69495857988164 173.04" height="173.04" width="149.69495857988164"><g><svg viewBox="0 0 149.69495857988164 173.04" height="173.04" width="149.69495857988164"><g><svg viewBox="0 0 149.69495857988164 173.04" height="173.04" width="149.69495857988164"><g><svg viewBox="0 0 149.69495857988164 173.04" height="173.04" width="149.69495857988164"><g id="textblocktransform"><svg viewBox="0 0 149.69495857988164 173.04" height="173.04" width="149.69495857988164" id="textblock"><g><svg viewBox="0 0 149.69495857988164 173.04" height="173.04" width="149.69495857988164"><g transform="matrix(1,0,0,1,0,0)"><svg width="149.69495857988164" viewBox="0.34999999999999964 -39.25 37.55 43.25" height="173.04" data-palette-color="#b10dc9"><path d="M4.35 0L4.35-35.25 16.2-35.25Q24.65-35.25 29.28-30.68 33.9-26.1 33.9-17.65L33.9-17.65Q33.9-9.2 29.28-4.6 24.65 0 16.2 0L16.2 0 4.35 0ZM8.45-3.5L15.95-3.5Q29.65-3.5 29.65-17.65L29.65-17.65Q29.65-31.75 15.95-31.75L15.95-31.75 8.45-31.75 8.45-3.5Z" opacity="1" transform="matrix(1,0,0,1,0,0)" fill="#b10dc9" class="wordmark-text-0" data-fill-palette-color="primary" id="text-0"></path></svg></g></svg></g></svg></g></svg></g><g></g></svg></g></svg></g></svg></g><g mask="url(#cf02fafb-64ae-4bb8-8ee4-493e1b6f7cb5)"><g transform="matrix(3.4374472830243223, 0, 0, 3.4374472830243223, 75.15854427091232, 1)"><svg xmlns="http://www.w3.org/2000/svg" viewBox="13.5 11.167996972372757 71.33285001026745 71.33200302762724" x="0" y="0" height="71.33200302762724" width="71.33285001026745" class="icon-none" id="none"><path fill-rule="evenodd" clip-rule="evenodd" d="M0 3.208C0 1.758 1.175 0.583 2.625 0.583H6C6.345 0.583 6.625 0.863 6.625 1.208 6.625 1.553 6.345 1.833 6 1.833H2.625C1.866 1.833 1.25 2.449 1.25 3.208V15.208C1.25 15.967 1.866 16.583 2.625 16.583H14.625C15.384 16.583 16 15.967 16 15.208V11.833C16 11.488 16.28 11.208 16.625 11.208 16.97 11.208 17.25 11.488 17.25 11.833V15.208C17.25 16.658 16.075 17.833 14.625 17.833H2.625C1.175 17.833 0 16.658 0 15.208V3.208Z" transform="translate(13.5 11.168) scale(4)" fill="#b10dc9" data-fill-palette-color="accent"></path><path fill-rule="evenodd" clip-rule="evenodd" d="M9.554 14.113L16.625 7.042C18.236 5.431 18.236 2.819 16.625 1.208 15.014-0.403 12.402-0.403 10.791 1.208L3.72 8.279C2.11 9.89 2.109 12.502 3.72 14.113 5.331 15.724 7.943 15.723 9.554 14.113ZM4.604 9.163L7.261 6.507C7.447 7.48 7.917 8.409 8.67 9.163 9.424 9.916 10.353 10.386 11.326 10.573L8.67 13.229C7.547 14.352 5.727 14.352 4.604 13.229 3.481 12.106 3.482 10.286 4.604 9.163ZM9.554 8.279C8.748 7.473 8.371 6.401 8.424 5.344L11.675 2.092C12.798 0.97 14.618 0.969 15.741 2.092 16.864 3.215 16.864 5.035 15.741 6.158L12.49 9.409C11.432 9.463 10.36 9.085 9.554 8.279Z" transform="translate(13.5 11.168) scale(4)" fill="#b10dc9" data-fill-palette-color="accent"></path></svg></g></g></svg></g><defs></defs></svg><rect width="395.52" height="247.2" fill="none" stroke="none" visibility="hidden"></rect></g></svg></g></svg>